<?xml version="1.0" encoding="UTF-8"?>
<svg width="48px" height="48px" viewBox="0 0 48 48" version="1.1" xmlns="http://www.w3.org/2000/svg" xmlns:xlink="http://www.w3.org/1999/xlink">
    <!-- Generator: Sketch 51 (57462) - http://www.bohemiancoding.com/sketch -->
    <title>icon</title>
    <desc>Created with Sketch.</desc>
    <defs></defs>
    <g id="icon" stroke="none" stroke-width="1" fill="none" fill-rule="evenodd">
        <circle id="Oval" fill="#3953BF" fill-rule="nonzero" cx="24" cy="24" r="24"></circle>
        <path d="M36.6666667,32.3335448 L32.6666667,32.3335448 L32.6666667,21.6668781 C32.6666667,19.8260916 31.1743313,18.3337562 29.3331219,18.3337562 C29.1060366,18.3337562 28.8844487,18.3570145 28.6696268,18.4005709 C29.5166508,17.5370547 30.694788,17 31.9997886,17 C34.577228,17 36.6666667,19.0898615 36.6666667,21.6668781 L36.6666667,32.3335448 Z M26,21.6668781 L26,25.6668781 C26,28.2443176 23.9105614,30.3337562 21.3331219,30.3337562 C20.0285442,30.3337562 18.8499841,29.7967016 18.003383,28.9331853 C18.217782,28.9767417 18.4393699,29 18.6668781,29 C20.5076647,29 22,27.5076647 22,25.6668781 L22,21.6668781 C22,17.6165557 25.2832223,14.3337562 29.3331219,14.3337562 C31.1113225,14.3337562 32.7406703,14.967227 34.0105719,16.0193467 C33.3809071,15.7952215 32.7064172,15.6670895 31.9997886,15.6670895 C28.686119,15.6670895 26,18.3527857 26,21.6668781 Z M18.6668781,33 C14.6165557,33 11.3333333,29.7172005 11.3333333,25.6668781 L11.3333333,15.0002114 L15.3333333,15.0002114 L15.3333333,25.6668781 C15.3333333,28.9805476 18.0194524,31.6666667 21.3331219,31.6666667 C22.0397505,31.6666667 22.7142404,31.5385347 23.3439053,31.3144096 C22.0744265,32.3669521 20.4446559,33 18.6668781,33 Z M29.3331219,13 C24.5469923,13 20.6666667,16.8803256 20.6666667,21.6668781 L20.6666667,25.6668781 C20.6666667,26.7714346 19.7710117,27.6670895 18.6668781,27.6670895 C17.5618987,27.6670895 16.6666667,26.7714346 16.6666667,25.6668781 L16.6666667,13.6668781 L10,13.6668781 L10,25.6668781 C10,30.4534306 13.8803256,34.3337562 18.6668781,34.3337562 C23.2457977,34.3337562 26.9861508,30.7794693 27.3020404,26.2808965 C27.3227614,26.078761 27.3333333,25.8740882 27.3333333,25.6668781 L27.3333333,21.6668781 C27.3333333,20.5623216 28.2285654,19.6670895 29.3331219,19.6670895 C30.4381013,19.6670895 31.3333333,20.5623216 31.3333333,21.6668781 L31.3333333,33.6664552 L38,33.6664552 L38,21.6668781 C38,21.459668 37.9894281,21.2549952 37.9691299,21.0528597 C37.6528174,16.5542869 33.9124643,13 29.3331219,13 Z" id="Fill-14" fill="#FFFFFF"></path>
    </g>
</svg>